inDegrees=no
num_controls=7
num_derivatives=13
num_iterations=111
num_multipliers=7
num_parameters=0
num_slacks=7
num_states=26
objective=0.524278
objective_accelerations=0.092254
objective_balance=0.003737
objective_effort=0.058121
objective_height=0.361642
objective_ligament=0.008524
solver_duration=1126.398928
status=Solve_Succeeded
success=true
DataType=double
version=3
OpenSimVersion=4.5
endheader
time	/jointset/ground_pelvis/pelvis_tilt/value	/jointset/ground_pelvis/pelvis_tx/value	/jointset/ground_pelvis/pelvis_ty/value	/jointset/hip_r/hip_flexion_r/value	/jointset/hip_r/hip_adduction_r/value	/jointset/hip_r/hip_rotation_r/value	/jointset/back/lumbar_extension/value	/jointset/patellofemoral_r/patellar_flexion_r/value	/jointset/knee_r/knee_flexion_r/value	/jointset/knee_r/knee_adduction_r/value	/jointset/knee_r/knee_rotation_r/value	/jointset/ankle_r/ankle_angle_r/value	/jointset/subtalar_r/subtalar_angle_r/value	/jointset/ground_pelvis/pelvis_tilt/speed	/jointset/ground_pelvis/pelvis_tx/speed	/jointset/ground_pelvis/pelvis_ty/speed	/jointset/hip_r/hip_flexion_r/speed	/jointset/hip_r/hip_adduction_r/speed	/jointset/hip_r/hip_rotation_r/speed	/jointset/back/lumbar_extension/speed	/jointset/patellofemoral_r/patellar_flexion_r/speed	/jointset/knee_r/knee_flexion_r/speed	/jointset/knee_r/knee_adduction_r/speed	/jointset/knee_r/knee_rotation_r/speed	/jointset/ankle_r/ankle_angle_r/speed	/jointset/subtalar_r/subtalar_angle_r/speed	/forceset/tau_hip_flexion_r	/forceset/tau_hip_adduction_r	/forceset/tau_hip_rotation_r	/forceset/tau_knee_flexion_r	/forceset/tau_ankle_angle_r	/forceset/tau_subtalar_angle_r	/forceset/tau_lumbar_extension	lambda_cid13_p0	lambda_cid14_p0	lambda_cid14_p1	lambda_cid14_p2	lambda_cid14_p3	lambda_cid14_p4	lambda_cid14_p5	/jointset/ground_pelvis/pelvis_tilt/accel	/jointset/ground_pelvis/pelvis_tx/accel	/jointset/ground_pelvis/pelvis_ty/accel	/jointset/hip_r/hip_flexion_r/accel	/jointset/hip_r/hip_adduction_r/accel	/jointset/hip_r/hip_rotation_r/accel	/jointset/back/lumbar_extension/accel	/jointset/patellofemoral_r/patellar_flexion_r/accel	/jointset/knee_r/knee_flexion_r/accel	/jointset/knee_r/knee_adduction_r/accel	/jointset/knee_r/knee_rotation_r/accel	/jointset/ankle_r/ankle_angle_r/accel	/jointset/subtalar_r/subtalar_angle_r/accel	gamma_cid13_p0	gamma_cid14_p0	gamma_cid14_p1	gamma_cid14_p2	gamma_cid14_p3	gamma_cid14_p4	gamma_cid14_p5
0.5	-0.2479249048694599	-0.02939377349478567	0.7170676913904808	1.300411095620327	-0.2285706233897434	-0.07382599300805982	-0.3677880353267469	1.192973563068947	1.192973563068882	-0.05087212723192066	0.1745007368359494	0.3331885650583907	0.07930527710747082	-0.5506882965780215	-0.18077705327088	-0.9450898768427523	3.017603423048774	-0.03058184260648417	0.3072985937665886	-0.5569893407628512	2.991905128107471	2.991905128106299	-0.4709707189746883	-0.0003692663232949876	0.6439880894488942	0.1614217103690671	-0.1832942884102104	-0.01988276219304939	0.01172392136871352	-0.4180265841923295	0.1320266809294242	0.0007428506036575728	0.2141497114026164	-1.818017008969178	2.284249524690883	1.233645614040676	-0.3204736028624803	-13.95095465387404	-649.7407961430357	62.1858109826216	1.392054626731815	1.201396311576957	-0.7828125240228654	-1.927211119989321	-0.1735538618524988	-0.7190089058868712	2.43124498806974	-2.135685955762543	-2.135685955762645	0.5055718863117268	-0.09306673262272422	-1.851828843660195	-0.6916128010985316	-6.593297332631814e-07	-8.037499466475526e-07	2.23776016925387e-06	-5.389721553622851e-06	1.75806819665729e-07	-7.050857232250742e-07	-9.036618928082756e-07
0.51	-0.2533603192508631	-0.03114130618355051	0.7075802123494317	1.330485912163697	-0.2288872043017569	-0.07078488291165883	-0.3732368210238016	1.222781599762235	1.222781599762218	-0.05554899262375877	0.1744946774322463	0.3395335542909765	0.08088067405787933	-0.5362725961455972	-0.168715894803479	-0.9521615890869335	2.996977134068984	-0.03271080570275889	0.3011047393545391	-0.5327324160681278	2.969318245905499	2.969318245904219	-0.4642372346741099	-0.0008904198061994238	0.6248734160658793	0.1536052361415351	-0.1923445810884877	-0.01848732151833376	0.0116927807461892	-0.4267993816638757	0.1306487338260465	0.0005816447647742707	0.2224598088684595	-1.002599148132836	1.209976761454826	0.7749935851631503	-0.01828101050069004	-13.37462481308784	-660.1333854696408	62.15905778793088	1.484524597761752	1.210550285182274	-0.6328329464564304	-2.18786605268063	-0.229674024684587	-0.5433210333384043	2.428223597059889	-2.377655194635911	-2.377655194652182	0.7824995811551847	-0.0398904375437352	-1.961826093664402	-0.8348373897421381	-4.200254135188554e-07	-3.495662725638517e-07	3.289639122036537e-06	-2.463656029474902e-06	-1.941581074246397e-07	-6.212349210845237e-07	1.130364586416478e-06
0.52	-0.2586479372586898	-0.03276781235346923	0.6980293197115727	1.360342960164128	-0.2292244961429685	-0.06780046082427192	-0.3784419759965316	1.252352274465054	1.252352274465095	-0.06015347059674582	0.1744817563374381	0.3456832888881237	0.0823762717347802	-0.521129021862613	-0.1565717495016554	-0.95777259620474	2.974049714460921	-0.03472402844581496	0.2959609919635107	-0.5082631958979535	2.944432730014673	2.944432730013284	-0.4564932352045572	-0.001741604545879807	0.6049371623611733	0.1454618556675379	-0.2013948737667675	-0.01709188084362669	0.01166164012372177	-0.4355721791354185	0.1292707867226681	0.0004204389258821779	0.2307699063343001	-0.4329362754067201	0.15085125643379	0.3442746757967673	0.250576110791857	-12.91951313259676	-670.330225463255	62.2868047478316	1.537629396843749	1.21799367846149	-0.4906714987479241	-2.387437245643844	-0.150405791208754	-0.5089875016826441	2.473704083159894	-2.595412693533237	-2.59541269353327	0.7076749201065738	-0.1590729839778939	-2.016144907998461	-0.7569940503915783	3.304337584842838e-08	5.406831390365874e-07	5.846099896663425e-06	3.315423685289694e-06	-9.523233431720137e-07	-5.25600395331928e-07	5.673766454666752e-06
0.53	-0.2637808371683945	-0.0342725952551726	0.688429628535582	1.389959728240104	-0.2295800767285913	-0.06487300754155764	-0.3834013783187533	1.28166242185486	1.281662421854864	-0.06468737686969017	0.1744611574529098	0.3516301825579109	0.08379105067864598	-0.505343999265305	-0.1443791919295839	-0.9619169106587433	2.948927169953546	-0.03637896305163665	0.2896559386427872	-0.4836048819022034	2.917232606381714	2.917232606380513	-0.450158975646531	-0.002414604633553041	0.5843325079915006	0.1374388284865997	-0.2101658791100641	-0.01638792551848523	0.0115041822676855	-0.4448987187219544	0.1279136264703164	0.0003935185766586333	0.2387918298452654	-0.1161252897151911	-0.9125637975186469	0.009232559709992223	0.4606493548739338	-12.34287747598248	-680.7232819879763	62.66008451371012	1.61511980374192	1.220462522675637	-0.3390972421814187	-2.631032117785319	-0.1699678531406592	-0.6722653625206522	2.463753054304929	-2.836987636597288	-2.836987636569154	0.6163142039236468	-0.02527603245045653	-2.09914731846543	-0.8313472075596223	2.911048824742951e-07	9.916526706393879e-07	6.561039582792333e-06	6.127852908494673e-06	-1.289406886606323e-06	-4.235524626091519e-07	7.69253266732369e-06
0.54	-0.2687526506296124	-0.03565533743593614	0.6787959370503605	1.419313997058105	-0.2299515927718467	-0.06200480501510254	-0.3881138259017128	1.310689632920652	1.310689632920619	-0.06915393800099989	0.174433056065246	0.3573677253605985	0.08512432131957941	-0.4889117321652946	-0.1321636053136891	-0.9645726580509378	2.921549862866132	-0.03791111997232922	0.2841108407119265	-0.4588722480455582	2.887845465211953	2.887845465210939	-0.4430242068775852	-0.003242105172760538	0.5630669889412783	0.1291601950810735	-0.2189368844533643	-0.01568397019334887	0.01134672441154744	-0.454225258308495	0.126556466217964	0.0003665982274286073	0.2468137533562279	-0.04550193816879295	-1.963263320512339	-0.3048297635433406	0.6459667065914078	-11.86093129507932	-690.9629723162295	63.04923299457883	1.667078297384232	1.222599487226149	-0.1929580863861689	-2.838389761651559	-0.1258502541829592	-0.3569964237100921	2.488568055338876	-3.032816200893504	-3.032816200893679	0.8677767622905155	-0.189973074284716	-2.14831784410838	-0.8081152953091846	3.33413650747953e-07	9.566104201171362e-07	5.238551681646851e-06	5.658030524016631e-06	-1.160612813013406e-06	-3.14408845578942e-07	6.918084963153919e-06
0.55	-0.2735573946456539	-0.03691593900736782	0.6691429937047777	1.448384059621738	-0.2303369512944692	-0.05918763447794027	-0.3925784129506856	1.339412684080693	1.339412684080711	-0.07354608916407705	0.1743939693540713	0.362889879802008	0.08637500392708086	-0.4719499847755673	-0.1199662270155436	-0.965768079365551	2.892106483231284	-0.03913206903671226	0.2793043550902444	-0.4340619666674729	2.856413503658616	2.856413503657394	-0.435420440076442	-0.004571440137382012	0.5412776957329871	0.1209582773180433	-0.2272912477995077	-0.01486210845950693	0.01094080982534927	-0.4635198756405271	0.1250822765766692	0.0001721042330707824	0.2543823996013858	-0.0454476202541058	-3.056661443289552	-0.7206242002823661	0.8720281336555975	-11.20319694430315	-700.9894288130654	63.20642683132193	1.723903622235132	1.216661222367554	-0.0456953742125215	-3.050614159836892	-0.1150923842782538	-0.5450784485394744	2.474737441168462	-3.251146901347276	-3.251146901378469	0.7047812213896545	-0.1024989965090344	-2.207239292097242	-0.8275955504072661	3.636378799304838e-07	9.398573558988706e-07	4.453336437313252e-06	5.353582714287153e-06	-1.087369568173283e-06	-2.611205370987614e-07	6.57568585732101e-06
0.5600000000000001	-0.2781898850553041	-0.03805489595156628	0.6594855239020062	1.477149027969934	-0.2307334943380772	-0.05641904956042859	-0.3967954013334524	1.367810863471442	1.367810863471509	-0.07786258174266818	0.1743419722354501	0.3681915404647531	0.08754339425023056	-0.4544610108871142	-0.1078346798670473	-0.9654779494887024	2.860531019779017	-0.0401480241695821	0.2743937167828729	-0.4093525148043818	2.822871111353539	2.822871111352108	-0.4278924899807601	-0.005824186660328546	0.5189682332083858	0.1127017382107183	-0.2356456111456542	-0.01404024672568118	0.01053489523916144	-0.4728144929725583	0.1236080869353704	-2.238976131306469e-05	0.2619510458465412	-0.04531149104106003	-4.158672542750621	-1.141487271658218	1.102972126026918	-10.5506192002829	-711.1543938036237	63.35316964556751	1.77252359712938	1.209433257296315	0.1041521519061792	-3.264806525135568	-0.08485146788032864	-0.3778269608479753	2.468402152339992	-3.454902351241736	-3.454902351241731	0.8526134211982725	-0.1746553859496919	-2.252351707370401	-0.8190395641681831	3.793606622036626e-07	9.450513152453875e-07	4.312848381153892e-06	5.247584394255946e-06	-1.080787317836513e-06	-2.748585988786138e-07	6.751745069492318e-06
0.5700000000000001	-0.282645184388046	-0.0390729623342825	0.6498383170461861	1.505587956295638	-0.2311391898654582	-0.05369934231365067	-0.4007658584417816	1.395863441906201	1.395863441906187	-0.08210356580077567	0.1742772576461948	0.3732678110074695	0.08862902727218859	-0.4365348837395317	-0.09579722820747205	-0.9637190671183861	2.826914908509039	-0.04095887643856647	0.2695821719314879	-0.3847738013936255	2.78731998253918	2.787319982539148	-0.4202685083235985	-0.007140251424231529	0.496232539305221	0.1044258618004061	-0.2434305687554317	-0.01343374731632793	0.009938242338247284	-0.4819054986693603	0.1222882954204188	-0.0001850221949451526	0.2689702982764531	-0.04509659272544036	-5.181103569719098	-1.531309593036478	1.325225734721008	-9.925365336503058	-720.8286211956322	63.51510806670053	1.812373538787473	1.197890977779248	0.2483529371790603	-3.460849192662036	-0.07359005421368775	-0.52740957145647	2.447371755518573	-3.653984756184177	-3.653984755974465	0.7228315786518451	-0.1119903369036009	-2.292235168926479	-0.8304413412310431	3.89502237553631e-07	9.420706184760625e-07	4.161938158898392e-06	5.110433110173952e-06	-1.068253057513764e-06	-2.874395510485283e-07	6.86982678770841e-06
